<svg width="2048" height="2048" style="background-color: white;"><g transform="translate(35,35)"><g transform="translate(39.34000000000003,1879.32)"><rect fill="none" stroke="black" width="1899.3199999999997" height="118.68"></rect><g transform="translate(2.9670000000000005,2.9670000000000005)"><g><rect width="112.74600000000001" height="112.74600000000001" fill="white"></rect><image width="112.74600000000001" height="112.74600000000001" href="https://upload.wikimedia.org/wikipedia/commons/9/91/Octicons-mark-github.svg"></image></g><text x="118.68" y="47.472" dominant-baseline="middle" style="fill: black; font-size: 59.34px;">Groups</text><text x="118.68" y="94.944" dominant-baseline="middle" style="fill: black; font-size: 29.67px;">More information can be found at http://github.com/cidrblock/dld4e</text><text x="1519.4559999999997" y="14.835" dominant-baseline="middle" text-anchor="end" style="fill: black; font-size: 29.67px; font-weight: bold;">Author:</text><text x="1525.3899999999996" y="14.835" dominant-baseline="middle" style="fill: black; font-size: 29.67px;">Bradley A. Thornton</text><text x="1519.4559999999997" y="44.505" dominant-baseline="middle" text-anchor="end" style="fill: black; font-size: 29.67px; font-weight: bold;">Company:</text><text x="1525.3899999999996" y="44.505" dominant-baseline="middle" style="fill: black; font-size: 29.67px;">Self</text><text x="1519.4559999999997" y="74.17500000000001" dominant-baseline="middle" text-anchor="end" style="fill: black; font-size: 29.67px; font-weight: bold;">Date:</text><text x="1525.3899999999996" y="74.17500000000001" dominant-baseline="middle" style="fill: black; font-size: 29.67px;">28.6.2018</text><text x="1519.4559999999997" y="103.845" dominant-baseline="middle" text-anchor="end" style="fill: black; font-size: 29.67px; font-weight: bold;">Version:</text><text x="1525.3899999999996" y="103.845" dominant-baseline="middle" style="fill: black; font-size: 29.67px;">1.01</text></g></g><g class="grid" transform="translate(0,1859.320)" fill="none" font-size="10" font-family="sans-serif" text-anchor="middle"><path class="domain" stroke="#000" d="M59.84000000000003,-1859.32V0.5H1919.1599999999999V-1859.32"></path><g class="tick" opacity="1" transform="translate(158.5,0)"><line stroke="#000" y2="-1859.32"></line><text fill="#000" y="3" dy="0.71em"></text></g><g class="tick" opacity="1" transform="translate(490.5,0)"><line stroke="#000" y2="-1859.32"></line><text fill="#000" y="3" dy="0.71em"></text></g><g class="tick" opacity="1" transform="translate(822.5,0)"><line stroke="#000" y2="-1859.32"></line><text fill="#000" y="3" dy="0.71em"></text></g><g class="tick" opacity="1" transform="translate(1154.5,0)"><line stroke="#000" y2="-1859.32"></line><text fill="#000" y="3" dy="0.71em"></text></g><g class="tick" opacity="1" transform="translate(1486.5,0)"><line stroke="#000" y2="-1859.32"></line><text fill="#000" y="3" dy="0.71em"></text></g><g class="tick" opacity="1" transform="translate(1818.5,0)"><line stroke="#000" y2="-1859.32"></line><text fill="#000" y="3" dy="0.71em"></text></g></g><g class="grid" transform="translate(59.34000000000003,0)" fill="none" font-size="10" font-family="sans-serif" text-anchor="end"><path class="domain" stroke="#000" d="M1859.32,0.5H0.5V1859.82H1859.32"></path><g class="tick" opacity="1" transform="translate(0,99.5)"><line stroke="#000" x2="1859.32"></line><text fill="#000" x="-3" dy="0.32em"></text></g><g class="tick" opacity="1" transform="translate(0,431.5)"><line stroke="#000" x2="1859.32"></line><text fill="#000" x="-3" dy="0.32em"></text></g><g class="tick" opacity="1" transform="translate(0,763.5)"><line stroke="#000" x2="1859.32"></line><text fill="#000" x="-3" dy="0.32em"></text></g><g class="tick" opacity="1" transform="translate(0,1095.5)"><line stroke="#000" x2="1859.32"></line><text fill="#000" x="-3" dy="0.32em"></text></g><g class="tick" opacity="1" transform="translate(0,1427.5)"><line stroke="#000" x2="1859.32"></line><text fill="#000" x="-3" dy="0.32em"></text></g><g class="tick" opacity="1" transform="translate(0,1759.5)"><line stroke="#000" x2="1859.32"></line><text fill="#000" x="-3" dy="0.32em"></text></g></g><g transform="translate(0,1859.320)" class="axisNone" fill="none" font-size="10" font-family="sans-serif" text-anchor="middle"><path class="domain" stroke="#000" d="M59.84000000000003,6V0.5H1919.1599999999999V6"></path><g class="tick" opacity="1" transform="translate(158.5,0)"><line stroke="#000" y2="6"></line><text fill="#000" y="9" dy="0.71em">0</text></g><g class="tick" opacity="1" transform="translate(490.5,0)"><line stroke="#000" y2="6"></line><text fill="#000" y="9" dy="0.71em">1</text></g><g class="tick" opacity="1" transform="translate(822.5,0)"><line stroke="#000" y2="6"></line><text fill="#000" y="9" dy="0.71em">2</text></g><g class="tick" opacity="1" transform="translate(1154.5,0)"><line stroke="#000" y2="6"></line><text fill="#000" y="9" dy="0.71em">3</text></g><g class="tick" opacity="1" transform="translate(1486.5,0)"><line stroke="#000" y2="6"></line><text fill="#000" y="9" dy="0.71em">4</text></g><g class="tick" opacity="1" transform="translate(1818.5,0)"><line stroke="#000" y2="6"></line><text fill="#000" y="9" dy="0.71em">5</text></g></g><g transform="translate(59.34000000000003,0)" class="axisNone" fill="none" font-size="10" font-family="sans-serif" text-anchor="end"><path class="domain" stroke="#000" d="M-6,0.5H0.5V1859.82H-6"></path><g class="tick" opacity="1" transform="translate(0,99.5)"><line stroke="#000" x2="-6"></line><text fill="#000" x="-9" dy="0.32em">5</text></g><g class="tick" opacity="1" transform="translate(0,431.5)"><line stroke="#000" x2="-6"></line><text fill="#000" x="-9" dy="0.32em">4</text></g><g class="tick" opacity="1" transform="translate(0,763.5)"><line stroke="#000" x2="-6"></line><text fill="#000" x="-9" dy="0.32em">3</text></g><g class="tick" opacity="1" transform="translate(0,1095.5)"><line stroke="#000" x2="-6"></line><text fill="#000" x="-9" dy="0.32em">2</text></g><g class="tick" opacity="1" transform="translate(0,1427.5)"><line stroke="#000" x2="-6"></line><text fill="#000" x="-9" dy="0.32em">1</text></g><g class="tick" opacity="1" transform="translate(0,1759.5)"><line stroke="#000" x2="-6"></line><text fill="#000" x="-9" dy="0.32em">0</text></g></g><rect x="15.11" y="-43.89" rx="9.950000000000001" ry="9.950000000000001" width="950.78" height="950.78" fill="none" style="stroke: black; stroke-dasharray: 0,0; stroke-width: 1;"></rect><rect x="15.11" y="-43.89" rx="9.950000000000001" ry="9.950000000000001" width="950.78" height="950.78" fill="none" style="stroke: black; stroke-dasharray: 0,0; stroke-width: 1;"></rect><rect x="15.11" y="-43.89" rx="9.950000000000001" ry="9.950000000000001" width="950.78" height="950.78" fill="none" style="stroke: black; stroke-dasharray: 0,0; stroke-width: 1;"></rect><rect x="15.11" y="-43.89" rx="9.950000000000001" ry="9.950000000000001" width="950.78" height="950.78" fill="none" style="stroke: black; stroke-dasharray: 0,0; stroke-width: 1;"></rect><rect x="15.11" y="-43.89" rx="9.950000000000001" ry="9.950000000000001" width="950.78" height="950.78" fill="none" style="stroke: black; stroke-dasharray: 0,0; stroke-width: 1;"></rect><rect x="15.11" y="-43.89" rx="9.950000000000001" ry="9.950000000000001" width="950.78" height="950.78" fill="none" style="stroke: black; stroke-dasharray: 0,0; stroke-width: 1;"></rect><rect x="1011.11" y="952.11" rx="9.950000000000001" ry="9.950000000000001" width="950.7800000000001" height="950.7800000000001" fill="none" style="stroke: black; stroke-dasharray: 0,0; stroke-width: 1;"></rect><rect x="1011.11" y="952.11" rx="9.950000000000001" ry="9.950000000000001" width="950.7800000000001" height="950.7800000000001" fill="none" style="stroke: black; stroke-dasharray: 0,0; stroke-width: 1;"></rect><rect x="1011.11" y="952.11" rx="9.950000000000001" ry="9.950000000000001" width="950.7800000000001" height="950.7800000000001" fill="none" style="stroke: black; stroke-dasharray: 0,0; stroke-width: 1;"></rect><rect x="1011.11" y="952.11" rx="9.950000000000001" ry="9.950000000000001" width="950.7800000000001" height="950.7800000000001" fill="none" style="stroke: black; stroke-dasharray: 0,0; stroke-width: 1;"></rect><rect x="1011.11" y="952.11" rx="9.950000000000001" ry="9.950000000000001" width="950.7800000000001" height="950.7800000000001" fill="none" style="stroke: black; stroke-dasharray: 0,0; stroke-width: 1;"></rect><rect x="1011.11" y="952.11" rx="9.950000000000001" ry="9.950000000000001" width="950.7800000000001" height="950.7800000000001" fill="none" style="stroke: black; stroke-dasharray: 0,0; stroke-width: 1;"></rect><g id="router1" transform="translate(59,0)"><rect rx="9.950000000000001" ry="9.950000000000001" width="199" height="199" fill="white" style="stroke: #004BAF; stroke-dasharray: 0,0;"></rect><svg xmlns="http://www.w3.org/2000/svg" viewBox="0 0 46.25 31.25" height="150.3" width="179.1" x="9.950000000000001" y="9.950000000000001"><path d="M46.23 9.19c0 4.937-10.293 8.94-22.987 8.94-12.7 0-22.994-4.003-22.994-8.94v13.095c0 4.936 10.293 8.94 22.994 8.94 12.695 0 22.987-4.004 22.987-8.94V9.19" fill="#004BAF"></path><path d="M46.23 9.19c0 4.937-10.293 8.94-22.987 8.94-12.7 0-22.994-4.003-22.994-8.94v13.095c0 4.936 10.293 8.94 22.994 8.94 12.695 0 22.987-4.004 22.987-8.94V9.19z" fill="none" stroke="#fff" stroke-width="0.25"></path><path d="M23.243 18.13c12.695 0 22.987-4.004 22.987-8.94 0-4.943-10.292-8.942-22.987-8.942-12.7 0-22.994 4-22.994 8.942 0 4.936 10.293 8.94 22.994 8.94" fill="#004BAF"></path><path d="M23.243 18.13c12.695 0 22.987-4.004 22.987-8.94 0-4.943-10.292-8.942-22.987-8.942-12.7 0-22.994 4-22.994 8.942 0 4.936 10.293 8.94 22.994 8.94z" fill="none" stroke="#fff" stroke-width="0.25"></path><path d="M17.994 5.694l1.894 2.846-7.178 1.66 1.567-1.309L3.19 6.997l2.777-2.084 10.709 1.81 1.319-1.03M28.091 12.598l-1.294-2.935 6.474-1.294-1.122 1.006 10.791 1.841-2.589 2.075-10.728-2.016-1.532 1.323M24.551 4.14l7.25-1.986.09 3.11-1.817-.346-3.536 2.933-3.38-.492 3.653-2.872-2.26-.347M21.445 15.274l-6.909 1.298-.259-3.193 1.988.43 3.799-3.248 3.364.567-4.058 3.54 2.075.606" fill="#fff"></path></svg><text class="iconLabel" style="font-size: 32px;" id="router1-text" transform="translate(99.5,182)rotate(0)" fill="#004BAF" text-anchor="middle" dominant-baseline="central">router1</text></g><g id="router2" transform="translate(723,0)"><rect rx="9.950000000000001" ry="9.950000000000001" width="199" height="199" fill="white" style="stroke: #004BAF; stroke-dasharray: 0,0;"></rect><svg xmlns="http://www.w3.org/2000/svg" viewBox="0 0 46.25 31.25" height="150.3" width="179.1" x="9.950000000000001" y="9.950000000000001"><path d="M46.23 9.19c0 4.937-10.293 8.94-22.987 8.94-12.7 0-22.994-4.003-22.994-8.94v13.095c0 4.936 10.293 8.94 22.994 8.94 12.695 0 22.987-4.004 22.987-8.94V9.19" fill="#004BAF"></path><path d="M46.23 9.19c0 4.937-10.293 8.94-22.987 8.94-12.7 0-22.994-4.003-22.994-8.94v13.095c0 4.936 10.293 8.94 22.994 8.94 12.695 0 22.987-4.004 22.987-8.94V9.19z" fill="none" stroke="#fff" stroke-width="0.25"></path><path d="M23.243 18.13c12.695 0 22.987-4.004 22.987-8.94 0-4.943-10.292-8.942-22.987-8.942-12.7 0-22.994 4-22.994 8.942 0 4.936 10.293 8.94 22.994 8.94" fill="#004BAF"></path><path d="M23.243 18.13c12.695 0 22.987-4.004 22.987-8.94 0-4.943-10.292-8.942-22.987-8.942-12.7 0-22.994 4-22.994 8.942 0 4.936 10.293 8.94 22.994 8.94z" fill="none" stroke="#fff" stroke-width="0.25"></path><path d="M17.994 5.694l1.894 2.846-7.178 1.66 1.567-1.309L3.19 6.997l2.777-2.084 10.709 1.81 1.319-1.03M28.091 12.598l-1.294-2.935 6.474-1.294-1.122 1.006 10.791 1.841-2.589 2.075-10.728-2.016-1.532 1.323M24.551 4.14l7.25-1.986.09 3.11-1.817-.346-3.536 2.933-3.38-.492 3.653-2.872-2.26-.347M21.445 15.274l-6.909 1.298-.259-3.193 1.988.43 3.799-3.248 3.364.567-4.058 3.54 2.075.606" fill="#fff"></path></svg><text class="iconLabel" style="font-size: 32px;" id="router2-text" transform="translate(99.5,182)rotate(0)" fill="#004BAF" text-anchor="middle" dominant-baseline="central">router2</text></g><g id="router3" transform="translate(59,664)"><rect rx="9.950000000000001" ry="9.950000000000001" width="199" height="199" fill="white" style="stroke: #004BAF; stroke-dasharray: 0,0;"></rect><svg xmlns="http://www.w3.org/2000/svg" viewBox="0 0 46.25 31.25" height="150.3" width="179.1" x="9.950000000000001" y="9.950000000000001"><path d="M46.23 9.19c0 4.937-10.293 8.94-22.987 8.94-12.7 0-22.994-4.003-22.994-8.94v13.095c0 4.936 10.293 8.94 22.994 8.94 12.695 0 22.987-4.004 22.987-8.94V9.19" fill="#004BAF"></path><path d="M46.23 9.19c0 4.937-10.293 8.94-22.987 8.94-12.7 0-22.994-4.003-22.994-8.94v13.095c0 4.936 10.293 8.94 22.994 8.94 12.695 0 22.987-4.004 22.987-8.94V9.19z" fill="none" stroke="#fff" stroke-width="0.25"></path><path d="M23.243 18.13c12.695 0 22.987-4.004 22.987-8.94 0-4.943-10.292-8.942-22.987-8.942-12.7 0-22.994 4-22.994 8.942 0 4.936 10.293 8.94 22.994 8.94" fill="#004BAF"></path><path d="M23.243 18.13c12.695 0 22.987-4.004 22.987-8.94 0-4.943-10.292-8.942-22.987-8.942-12.7 0-22.994 4-22.994 8.942 0 4.936 10.293 8.94 22.994 8.94z" fill="none" stroke="#fff" stroke-width="0.25"></path><path d="M17.994 5.694l1.894 2.846-7.178 1.66 1.567-1.309L3.19 6.997l2.777-2.084 10.709 1.81 1.319-1.03M28.091 12.598l-1.294-2.935 6.474-1.294-1.122 1.006 10.791 1.841-2.589 2.075-10.728-2.016-1.532 1.323M24.551 4.14l7.25-1.986.09 3.11-1.817-.346-3.536 2.933-3.38-.492 3.653-2.872-2.26-.347M21.445 15.274l-6.909 1.298-.259-3.193 1.988.43 3.799-3.248 3.364.567-4.058 3.54 2.075.606" fill="#fff"></path></svg><text class="iconLabel" style="font-size: 32px;" id="router3-text" transform="translate(99.5,182)rotate(0)" fill="#004BAF" text-anchor="middle" dominant-baseline="central">router3</text></g><g id="router4" transform="translate(723,664)"><rect rx="9.950000000000001" ry="9.950000000000001" width="199" height="199" fill="white" style="stroke: #004BAF; stroke-dasharray: 0,0;"></rect><svg xmlns="http://www.w3.org/2000/svg" viewBox="0 0 46.25 31.25" height="150.3" width="179.1" x="9.950000000000001" y="9.950000000000001"><path d="M46.23 9.19c0 4.937-10.293 8.94-22.987 8.94-12.7 0-22.994-4.003-22.994-8.94v13.095c0 4.936 10.293 8.94 22.994 8.94 12.695 0 22.987-4.004 22.987-8.94V9.19" fill="#004BAF"></path><path d="M46.23 9.19c0 4.937-10.293 8.94-22.987 8.94-12.7 0-22.994-4.003-22.994-8.94v13.095c0 4.936 10.293 8.94 22.994 8.94 12.695 0 22.987-4.004 22.987-8.94V9.19z" fill="none" stroke="#fff" stroke-width="0.25"></path><path d="M23.243 18.13c12.695 0 22.987-4.004 22.987-8.94 0-4.943-10.292-8.942-22.987-8.942-12.7 0-22.994 4-22.994 8.942 0 4.936 10.293 8.94 22.994 8.94" fill="#004BAF"></path><path d="M23.243 18.13c12.695 0 22.987-4.004 22.987-8.94 0-4.943-10.292-8.942-22.987-8.942-12.7 0-22.994 4-22.994 8.942 0 4.936 10.293 8.94 22.994 8.94z" fill="none" stroke="#fff" stroke-width="0.25"></path><path d="M17.994 5.694l1.894 2.846-7.178 1.66 1.567-1.309L3.19 6.997l2.777-2.084 10.709 1.81 1.319-1.03M28.091 12.598l-1.294-2.935 6.474-1.294-1.122 1.006 10.791 1.841-2.589 2.075-10.728-2.016-1.532 1.323M24.551 4.14l7.25-1.986.09 3.11-1.817-.346-3.536 2.933-3.38-.492 3.653-2.872-2.26-.347M21.445 15.274l-6.909 1.298-.259-3.193 1.988.43 3.799-3.248 3.364.567-4.058 3.54 2.075.606" fill="#fff"></path></svg><text class="iconLabel" style="font-size: 32px;" id="router4-text" transform="translate(99.5,182)rotate(0)" fill="#004BAF" text-anchor="middle" dominant-baseline="central">router4</text></g><g id="router5" transform="translate(1055,996)"><rect rx="9.950000000000001" ry="9.950000000000001" width="199" height="199" fill="white" style="stroke: #004BAF; stroke-dasharray: 0,0;"></rect><svg xmlns="http://www.w3.org/2000/svg" viewBox="0 0 46.25 31.25" height="150.3" width="179.1" x="9.950000000000001" y="9.950000000000001"><path d="M46.23 9.19c0 4.937-10.293 8.94-22.987 8.94-12.7 0-22.994-4.003-22.994-8.94v13.095c0 4.936 10.293 8.94 22.994 8.94 12.695 0 22.987-4.004 22.987-8.94V9.19" fill="#004BAF"></path><path d="M46.23 9.19c0 4.937-10.293 8.94-22.987 8.94-12.7 0-22.994-4.003-22.994-8.94v13.095c0 4.936 10.293 8.94 22.994 8.94 12.695 0 22.987-4.004 22.987-8.94V9.19z" fill="none" stroke="#fff" stroke-width="0.25"></path><path d="M23.243 18.13c12.695 0 22.987-4.004 22.987-8.94 0-4.943-10.292-8.942-22.987-8.942-12.7 0-22.994 4-22.994 8.942 0 4.936 10.293 8.94 22.994 8.94" fill="#004BAF"></path><path d="M23.243 18.13c12.695 0 22.987-4.004 22.987-8.94 0-4.943-10.292-8.942-22.987-8.942-12.7 0-22.994 4-22.994 8.942 0 4.936 10.293 8.94 22.994 8.94z" fill="none" stroke="#fff" stroke-width="0.25"></path><path d="M17.994 5.694l1.894 2.846-7.178 1.66 1.567-1.309L3.19 6.997l2.777-2.084 10.709 1.81 1.319-1.03M28.091 12.598l-1.294-2.935 6.474-1.294-1.122 1.006 10.791 1.841-2.589 2.075-10.728-2.016-1.532 1.323M24.551 4.14l7.25-1.986.09 3.11-1.817-.346-3.536 2.933-3.38-.492 3.653-2.872-2.26-.347M21.445 15.274l-6.909 1.298-.259-3.193 1.988.43 3.799-3.248 3.364.567-4.058 3.54 2.075.606" fill="#fff"></path></svg><text class="iconLabel" style="font-size: 32px;" id="router5-text" transform="translate(99.5,182)rotate(0)" fill="#004BAF" text-anchor="middle" dominant-baseline="central">router5</text></g><g id="router6" transform="translate(1719,996)"><rect rx="9.950000000000001" ry="9.950000000000001" width="199" height="199" fill="white" style="stroke: #004BAF; stroke-dasharray: 0,0;"></rect><svg xmlns="http://www.w3.org/2000/svg" viewBox="0 0 46.25 31.25" height="150.3" width="179.1" x="9.950000000000001" y="9.950000000000001"><path d="M46.23 9.19c0 4.937-10.293 8.94-22.987 8.94-12.7 0-22.994-4.003-22.994-8.94v13.095c0 4.936 10.293 8.94 22.994 8.94 12.695 0 22.987-4.004 22.987-8.94V9.19" fill="#004BAF"></path><path d="M46.23 9.19c0 4.937-10.293 8.94-22.987 8.94-12.7 0-22.994-4.003-22.994-8.94v13.095c0 4.936 10.293 8.94 22.994 8.94 12.695 0 22.987-4.004 22.987-8.94V9.19z" fill="none" stroke="#fff" stroke-width="0.25"></path><path d="M23.243 18.13c12.695 0 22.987-4.004 22.987-8.94 0-4.943-10.292-8.942-22.987-8.942-12.7 0-22.994 4-22.994 8.942 0 4.936 10.293 8.94 22.994 8.94" fill="#004BAF"></path><path d="M23.243 18.13c12.695 0 22.987-4.004 22.987-8.94 0-4.943-10.292-8.942-22.987-8.942-12.7 0-22.994 4-22.994 8.942 0 4.936 10.293 8.94 22.994 8.94z" fill="none" stroke="#fff" stroke-width="0.25"></path><path d="M17.994 5.694l1.894 2.846-7.178 1.66 1.567-1.309L3.19 6.997l2.777-2.084 10.709 1.81 1.319-1.03M28.091 12.598l-1.294-2.935 6.474-1.294-1.122 1.006 10.791 1.841-2.589 2.075-10.728-2.016-1.532 1.323M24.551 4.14l7.25-1.986.09 3.11-1.817-.346-3.536 2.933-3.38-.492 3.653-2.872-2.26-.347M21.445 15.274l-6.909 1.298-.259-3.193 1.988.43 3.799-3.248 3.364.567-4.058 3.54 2.075.606" fill="#fff"></path></svg><text class="iconLabel" style="font-size: 32px;" id="router6-text" transform="translate(99.5,182)rotate(0)" fill="#004BAF" text-anchor="middle" dominant-baseline="central">router6</text></g><g id="router7" transform="translate(1055,1660)"><rect rx="9.950000000000001" ry="9.950000000000001" width="199" height="199" fill="white" style="stroke: #004BAF; stroke-dasharray: 0,0;"></rect><svg xmlns="http://www.w3.org/2000/svg" viewBox="0 0 46.25 31.25" height="150.3" width="179.1" x="9.950000000000001" y="9.950000000000001"><path d="M46.23 9.19c0 4.937-10.293 8.94-22.987 8.94-12.7 0-22.994-4.003-22.994-8.94v13.095c0 4.936 10.293 8.94 22.994 8.94 12.695 0 22.987-4.004 22.987-8.94V9.19" fill="#004BAF"></path><path d="M46.23 9.19c0 4.937-10.293 8.94-22.987 8.94-12.7 0-22.994-4.003-22.994-8.94v13.095c0 4.936 10.293 8.94 22.994 8.94 12.695 0 22.987-4.004 22.987-8.94V9.19z" fill="none" stroke="#fff" stroke-width="0.25"></path><path d="M23.243 18.13c12.695 0 22.987-4.004 22.987-8.94 0-4.943-10.292-8.942-22.987-8.942-12.7 0-22.994 4-22.994 8.942 0 4.936 10.293 8.94 22.994 8.94" fill="#004BAF"></path><path d="M23.243 18.13c12.695 0 22.987-4.004 22.987-8.94 0-4.943-10.292-8.942-22.987-8.942-12.7 0-22.994 4-22.994 8.942 0 4.936 10.293 8.94 22.994 8.94z" fill="none" stroke="#fff" stroke-width="0.25"></path><path d="M17.994 5.694l1.894 2.846-7.178 1.66 1.567-1.309L3.19 6.997l2.777-2.084 10.709 1.81 1.319-1.03M28.091 12.598l-1.294-2.935 6.474-1.294-1.122 1.006 10.791 1.841-2.589 2.075-10.728-2.016-1.532 1.323M24.551 4.14l7.25-1.986.09 3.11-1.817-.346-3.536 2.933-3.38-.492 3.653-2.872-2.26-.347M21.445 15.274l-6.909 1.298-.259-3.193 1.988.43 3.799-3.248 3.364.567-4.058 3.54 2.075.606" fill="#fff"></path></svg><text class="iconLabel" style="font-size: 32px;" id="router7-text" transform="translate(99.5,182)rotate(0)" fill="#004BAF" text-anchor="middle" dominant-baseline="central">router7</text></g><g id="router8" transform="translate(1719,1660)"><rect rx="9.950000000000001" ry="9.950000000000001" width="199" height="199" fill="white" style="stroke: #004BAF; stroke-dasharray: 0,0;"></rect><svg xmlns="http://www.w3.org/2000/svg" viewBox="0 0 46.25 31.25" height="150.3" width="179.1" x="9.950000000000001" y="9.950000000000001"><path d="M46.23 9.19c0 4.937-10.293 8.94-22.987 8.94-12.7 0-22.994-4.003-22.994-8.94v13.095c0 4.936 10.293 8.94 22.994 8.94 12.695 0 22.987-4.004 22.987-8.94V9.19" fill="#004BAF"></path><path d="M46.23 9.19c0 4.937-10.293 8.94-22.987 8.94-12.7 0-22.994-4.003-22.994-8.94v13.095c0 4.936 10.293 8.94 22.994 8.94 12.695 0 22.987-4.004 22.987-8.94V9.19z" fill="none" stroke="#fff" stroke-width="0.25"></path><path d="M23.243 18.13c12.695 0 22.987-4.004 22.987-8.94 0-4.943-10.292-8.942-22.987-8.942-12.7 0-22.994 4-22.994 8.942 0 4.936 10.293 8.94 22.994 8.94" fill="#004BAF"></path><path d="M23.243 18.13c12.695 0 22.987-4.004 22.987-8.94 0-4.943-10.292-8.942-22.987-8.942-12.7 0-22.994 4-22.994 8.942 0 4.936 10.293 8.94 22.994 8.94z" fill="none" stroke="#fff" stroke-width="0.25"></path><path d="M17.994 5.694l1.894 2.846-7.178 1.66 1.567-1.309L3.19 6.997l2.777-2.084 10.709 1.81 1.319-1.03M28.091 12.598l-1.294-2.935 6.474-1.294-1.122 1.006 10.791 1.841-2.589 2.075-10.728-2.016-1.532 1.323M24.551 4.14l7.25-1.986.09 3.11-1.817-.346-3.536 2.933-3.38-.492 3.653-2.872-2.26-.347M21.445 15.274l-6.909 1.298-.259-3.193 1.988.43 3.799-3.248 3.364.567-4.058 3.54 2.075.606" fill="#fff"></path></svg><text class="iconLabel" style="font-size: 32px;" id="router8-text" transform="translate(99.5,182)rotate(0)" fill="#004BAF" text-anchor="middle" dominant-baseline="central">router8</text></g><text class="groupLabel" transform="translate(26.0825,-21.945)rotate(0)" text-anchor="start" dominant-baseline="central" style="font-size: 41.89px;" fill="black">topLeft</text><text class="groupLabel" transform="translate(490.5,-21.945)rotate(0)" text-anchor="middle" dominant-baseline="central" style="font-size: 41.89px;" fill="black">topMiddle</text><text class="groupLabel" transform="translate(954.9175,-21.945)rotate(0)" text-anchor="end" dominant-baseline="central" style="font-size: 41.89px;" fill="black">topRight</text><text class="groupLabel" transform="translate(26.0825,884.9449999999999)rotate(0)" text-anchor="start" dominant-baseline="central" style="font-size: 41.89px;" fill="black">bottomLeft</text><text class="groupLabel" transform="translate(490.5,884.9449999999999)rotate(0)" text-anchor="middle" dominant-baseline="central" style="font-size: 41.89px;" fill="black">bottomMiddle</text><text class="groupLabel" transform="translate(954.9175,884.9449999999999)rotate(0)" text-anchor="end" dominant-baseline="central" style="font-size: 41.89px;" fill="black">bottomRight</text><text class="groupLabel" transform="translate(1033.055,963.0825)rotate(-90)" text-anchor="end" dominant-baseline="central" style="font-size: 41.89px;" fill="black">leftTop</text><text class="groupLabel" transform="translate(1033.055,1427.5)rotate(-90)" text-anchor="middle" dominant-baseline="central" style="font-size: 41.89px;" fill="black">leftMiddle</text><text class="groupLabel" transform="translate(1033.055,1891.9175)rotate(-90)" text-anchor="start" dominant-baseline="central" style="font-size: 41.89px;" fill="black">leftBottom</text><text class="groupLabel" transform="translate(1939.9450000000002,963.0825)rotate(90)" text-anchor="start" dominant-baseline="central" style="font-size: 41.89px;" fill="black">rightTop</text><text class="groupLabel" transform="translate(1939.9450000000002,1427.5)rotate(90)" text-anchor="middle" dominant-baseline="central" style="font-size: 41.89px;" fill="black">rightMiddle</text><text class="groupLabel" transform="translate(1939.9450000000002,1891.9175)rotate(90)" text-anchor="end" dominant-baseline="central" style="font-size: 41.89px;" fill="black">rightBottom</text></g></svg>