<svg width="2048" height="2048" style="background-color: rgb(61, 57, 53);"><g transform="translate(35,35)"><g transform="translate(39.34000000000003,1879.32)"><line stroke="lightgrey" x2="1899.3199999999997" fill="orange"></line><g transform="translate(2.9670000000000005,2.9670000000000005)"><g><rect width="112.74600000000001" height="112.74600000000001" fill="lightgrey"></rect><image width="112.74600000000001" height="112.74600000000001" href="images/radial.png"></image></g><text x="118.68" y="47.472" dominant-baseline="middle" style="fill: lightgrey; font-size: 59.34px;">Sample Diagram</text><text x="118.68" y="94.944" dominant-baseline="middle" style="fill: lightgrey; font-size: 29.67px;">A sample diagram showing various style and icon types.</text><text x="1519.4559999999997" y="14.835" dominant-baseline="middle" text-anchor="end" style="fill: lightgrey; font-size: 29.67px; font-weight: bold;">Author:</text><text x="1525.3899999999996" y="14.835" dominant-baseline="middle" style="fill: lightgrey; font-size: 29.67px;">Bradley A. Thornton</text><text x="1519.4559999999997" y="44.505" dominant-baseline="middle" text-anchor="end" style="fill: lightgrey; font-size: 29.67px; font-weight: bold;">Company:</text><text x="1525.3899999999996" y="44.505" dominant-baseline="middle" style="fill: lightgrey; font-size: 29.67px;">Self</text><text x="1519.4559999999997" y="74.17500000000001" dominant-baseline="middle" text-anchor="end" style="fill: lightgrey; font-size: 29.67px; font-weight: bold;">Date:</text><text x="1525.3899999999996" y="74.17500000000001" dominant-baseline="middle" style="fill: lightgrey; font-size: 29.67px;">2018-7-8</text><text x="1519.4559999999997" y="103.845" dominant-baseline="middle" text-anchor="end" style="fill: lightgrey; font-size: 29.67px; font-weight: bold;">Version:</text><text x="1525.3899999999996" y="103.845" dominant-baseline="middle" style="fill: lightgrey; font-size: 29.67px;">1.01</text></g></g><rect x="814.54" y="350.54" rx="12.100000000000001" ry="12.100000000000001" width="348.9200000000001" height="752.9200000000001" fill="rgba(0, 0, 0, 0.3)" style="stroke: lightgrey; stroke-dasharray: 0,0; stroke-width: 1;"></rect><rect x="6.539999999999999" y="-53.46" rx="12.100000000000001" ry="12.100000000000001" width="1964.92" height="348.91999999999996" fill="rgba(0, 0, 0, 0.3)" style="stroke: lightgrey; stroke-dasharray: 0,0; stroke-width: 1;"></rect><rect x="814.54" y="1562.54" rx="12.100000000000001" ry="12.100000000000001" width="1156.92" height="348.9200000000001" fill="rgba(0, 0, 0, 0.3)" style="stroke: lightgrey; stroke-dasharray: 0,0; stroke-width: 1;"></rect><path id="path0" style="stroke: white; fill: none; stroke-dasharray: 10,2; stroke-width: 1;" d="M181,121L1797,121"></path><path id="path1" style="stroke: white; fill: none; stroke-dasharray: 10,2; stroke-width: 1;" d="M181,121L181,525L989,525"></path><path id="path2" style="stroke: white; fill: none; stroke-dasharray: 10,2; stroke-width: 1;" d="M989,929L989,525"></path><path id="path3" style="stroke: white; fill: none; stroke-dasharray: 10,2; stroke-width: 1;" d="M989,929L1393,929"></path><path id="path4" style="stroke: white; fill: none; stroke-dasharray: 10,2; stroke-width: 1;" d="M1393,1333L1393,929"></path><path id="path5" style="stroke: white; fill: none; stroke-dasharray: 10,2; stroke-width: 1;" d="M1393,929L1797,1737"></path><path id="path6" style="stroke: white; fill: none; stroke-dasharray: 10,2; stroke-width: 1;" d="M989,1737L1393,1333"></path><path id="path7" style="stroke: white; fill: none; stroke-dasharray: 10,2; stroke-width: 1;" d="M1393,1737L1393,1333"></path><path id="path8" style="stroke: blue; fill: none; stroke-dasharray: 0,0; stroke-width: 1;" d="M181,1131L989,929"></path><g id="chddc1crt001" transform="translate(60,0)"><rect rx="12.100000000000001" ry="12.100000000000001" width="242" height="242" fill="white" style="stroke: #004BAF; stroke-dasharray: 0,0;"></rect><svg xmlns="http://www.w3.org/2000/svg" viewBox="0 0 46.25 31.25" height="182.70000000000002" width="217.8" x="12.100000000000001" y="12.100000000000001"><path d="M46.23 9.19c0 4.937-10.293 8.94-22.987 8.94-12.7 0-22.994-4.003-22.994-8.94v13.095c0 4.936 10.293 8.94 22.994 8.94 12.695 0 22.987-4.004 22.987-8.94V9.19" fill="#004BAF"></path><path d="M46.23 9.19c0 4.937-10.293 8.94-22.987 8.94-12.7 0-22.994-4.003-22.994-8.94v13.095c0 4.936 10.293 8.94 22.994 8.94 12.695 0 22.987-4.004 22.987-8.94V9.19z" fill="none" stroke="#fff" stroke-width="0.25"></path><path d="M23.243 18.13c12.695 0 22.987-4.004 22.987-8.94 0-4.943-10.292-8.942-22.987-8.942-12.7 0-22.994 4-22.994 8.942 0 4.936 10.293 8.94 22.994 8.94" fill="#004BAF"></path><path d="M23.243 18.13c12.695 0 22.987-4.004 22.987-8.94 0-4.943-10.292-8.942-22.987-8.942-12.7 0-22.994 4-22.994 8.942 0 4.936 10.293 8.94 22.994 8.94z" fill="none" stroke="#fff" stroke-width="0.25"></path><path d="M17.994 5.694l1.894 2.846-7.178 1.66 1.567-1.309L3.19 6.997l2.777-2.084 10.709 1.81 1.319-1.03M28.091 12.598l-1.294-2.935 6.474-1.294-1.122 1.006 10.791 1.841-2.589 2.075-10.728-2.016-1.532 1.323M24.551 4.14l7.25-1.986.09 3.11-1.817-.346-3.536 2.933-3.38-.492 3.653-2.872-2.26-.347M21.445 15.274l-6.909 1.298-.259-3.193 1.988.43 3.799-3.248 3.364.567-4.058 3.54 2.075.606" fill="#fff"></path></svg><text class="iconLabel" style="font-size: 39px;" id="chddc1crt001-text" transform="translate(121,221.5)rotate(0)" fill="#004BAF" text-anchor="middle" dominant-baseline="central">chddc1crt001</text></g><g id="chddc1crt004" transform="translate(868,404)"><rect rx="12.100000000000001" ry="12.100000000000001" width="242" height="242" fill="#555555" style="stroke: none; stroke-dasharray: 0,0;"></rect><svg xmlns="http://www.w3.org/2000/svg" viewBox="0 0 378.75 380" height="182.70000000000002" width="217.8" x="12.100000000000001" y="12.100000000000001"><path d="M188.799 1.15C84.1 1.15 0 86.15 0 189.949c0 103.798 84.101 188.799 188.799 188.799 104.702 0 188.901-84.898 188.901-188.8C377.7 86.053 293.599 1.15 188.799 1.15zm-17.1 85.801V26.85H206V86.95H223.2L188.9 156.447 154.6 86.951h17.099zm-77.3 137.299l-69.497-34.301L94.4 155.652v17.197h60.102v34.302H94.4v17.099zm111.602 60.099v60.102H171.7V284.35h-17.197L188.8 214.85 223.1 284.35h-17.099zm77.3-60.099v-17.201H223.2V172.75H283.3V155.55l69.496 34.301-69.496 34.399z" fill="Gold" stroke="none"></path></svg><text class="iconLabel" style="font-size: 39px;" id="chddc1crt004-text" transform="translate(121,221.5)rotate(0)" fill="white" text-anchor="middle" dominant-baseline="central">chddc1crt004</text></g><g id="chddc1sfw005" transform="translate(868,808)"><rect rx="12.100000000000001" ry="12.100000000000001" width="242" height="242" fill="#555555" style="stroke: none; stroke-dasharray: 0,0;"></rect><svg xmlns="http://www.w3.org/2000/svg" viewBox="0 0 343.75 302.5" height="182.70000000000002" width="217.8" x="12.100000000000001" y="12.100000000000001"><g fill="#2a3282"><path d="M0 69.551h85.801V.851H0v68.7zM95.297 69.551h152.7V.851h-152.7v68.7zM257.5 69.551h85.801V.851H257.5v68.7zM0 146.749h162.202V78.053H0v68.696zM171.601 146.749H343.3V78.053H171.601v68.696zM0 224.049h85.801v-68.696H0v68.696zM95.297 224.049h152.7v-68.696h-152.7v68.696zM257.5 224.049h85.801v-68.696H257.5v68.696zM0 301.25h162.202v-68.701H0v68.701zM171.601 301.25H343.3v-68.701H171.601v68.701z" fill="red" stroke="none"></path></g></svg><text class="iconLabel" style="font-size: 39px;" id="chddc1sfw005-text" transform="translate(121,221.5)rotate(0)" fill="white" text-anchor="middle" dominant-baseline="central">chddc1sfw005</text></g><g id="chddc1slb005" transform="translate(1272,1212)"><rect rx="12.100000000000001" ry="12.100000000000001" width="242" height="242" fill="#555555" style="stroke: none; stroke-dasharray: 0,0;"></rect><svg xmlns="http://www.w3.org/2000/svg" viewBox="0 0 318.75 431.25" height="182.70000000000002" width="217.8" x="12.100000000000001" y="12.100000000000001"><path d="M304.702 204.299c-6.905 0-12.9 6.001-12.9 12.9V265.3l-121-121.9V80.7c16.298-5.2 28.3-20.601 28.3-38.599C199.101 19.801 181.098.9 157.9.9c-22.3 0-41.201 17.997-41.201 41.201C116.699 60.1 128.7 75.603 145 80.7v62.7L25.801 261.799v-44.6c0-6.899-6.001-12.9-12.901-12.9C6 204.299 0 210.3 0 217.199V306.5h89.301c6.9 0 12.902-6 12.902-12.9 0-6.899-6.002-12.9-12.902-12.9H43.8l101.298-101.299v201.7L112.5 348.497c-5.2-5.195-12.9-5.195-17.997 0-2.603 2.602-3.404 6-3.404 9.404 0 3.398.903 6.9 3.403 9.4l62.7 62.7 62.7-62.7c5.196-5.2 5.196-12.9 0-18.003-5.2-5.098-12.9-5.2-18.002 0l-31.099 31V179.402l100.4 100.4h-42.1c-6.898 0-12.9 6.002-12.9 12.9 0 6.9 6.002 12.902 12.9 12.902H318.4v-88.404c-.801-7.7-6.798-12.9-13.696-12.9z" fill="lightblue" stroke="none"></path></svg><text class="iconLabel" style="font-size: 39px;" id="chddc1slb005-text" transform="translate(121,221.5)rotate(0)" fill="white" text-anchor="middle" dominant-baseline="central">chddc1slb005</text></g><g id="chddc1srt001" transform="translate(1272,808)"><rect rx="12.100000000000001" ry="12.100000000000001" width="242" height="242" fill="#555555" style="stroke: none; stroke-dasharray: 0,0;"></rect><svg xmlns="http://www.w3.org/2000/svg" viewBox="0 0 378.75 380" height="182.70000000000002" width="217.8" x="12.100000000000001" y="12.100000000000001"><path d="M188.799 1.15C84.1 1.15 0 86.15 0 189.949c0 103.798 84.101 188.799 188.799 188.799 104.702 0 188.901-84.898 188.901-188.8C377.7 86.053 293.599 1.15 188.799 1.15zm-17.1 85.801V26.85H206V86.95H223.2L188.9 156.447 154.6 86.951h17.099zm-77.3 137.299l-69.497-34.301L94.4 155.652v17.197h60.102v34.302H94.4v17.099zm111.602 60.099v60.102H171.7V284.35h-17.197L188.8 214.85 223.1 284.35h-17.099zm77.3-60.099v-17.201H223.2V172.75H283.3V155.55l69.496 34.301-69.496 34.399z" fill="green" stroke="none"></path></svg><text class="iconLabel" style="font-size: 39px;" id="chddc1srt001-text" transform="translate(121,221.5)rotate(0)" fill="white" text-anchor="middle" dominant-baseline="central">chddc1srt001</text></g><g id="firewall" transform="translate(1676,0)"><rect rx="12.100000000000001" ry="12.100000000000001" width="242" height="242" fill="white" style="stroke: #004BAF; stroke-dasharray: 0,0;"></rect><svg xmlns="http://www.w3.org/2000/svg" viewBox="0 0 18.75 41.25" height="182.70000000000002" width="217.8" x="12.100000000000001" y="12.100000000000001"><path d="M.717 40.669h9.908V7.564H.717v33.105z" fill="#004BAF"></path><path d="M.717 40.669h9.908V7.564H.717v33.105z" fill="none" stroke="#fff" stroke-width="0.25"></path><path d="M10.625 7.564H.717L9.595.547h8.642l-7.612 7.017" fill="#004BAF"></path><path d="M10.625 7.564H.717L9.595.547h8.642l-7.612 7.017z" fill="none" stroke="#fff" stroke-width="0.25"></path><path d="M18.237.547v31.587l-7.612 8.583V7.564L18.237.547" fill="#004BAF"></path><path d="M18.237.547v31.587l-7.612 8.583V7.564L18.237.547zM15.899 7.954V2.64M15.899 18.711V13.4M15.899 29.467v-5.312" fill="none" stroke="#fff" stroke-width="0.25"></path><path d="M18.237 26.87l-7.612 8.32" fill="#004BAF"></path><path d="M18.237 26.87l-7.612 8.32" fill="none" stroke="#fff" stroke-width="0.25"></path><path d="M18.237 21.607l-7.612 8.06" fill="#004BAF"></path><path d="M18.237 21.607l-7.612 8.06" fill="none" stroke="#fff" stroke-width="0.25"></path><path d="M18.237 16.342l-7.612 7.798" fill="#004BAF"></path><path d="M18.237 16.342l-7.612 7.798" fill="none" stroke="#fff" stroke-width="0.25"></path><path d="M18.237 11.074l-7.612 7.54" fill="#004BAF"></path><path d="M18.237 11.074l-7.612 7.54" fill="none" stroke="#fff" stroke-width="0.25"></path><path d="M18.237 5.81l-7.612 7.281" fill="#004BAF"></path><path d="M18.237 5.81l-7.612 7.281" fill="none" stroke="#fff" stroke-width="0.25"></path><path d="M10.625 7.564L18.237.547" fill="#004BAF"></path><path d="M10.625 7.564L18.237.547M10.625 35.151H.717M10.625 29.634H.717M10.625 24.116H.717M10.625 18.599H.717M10.625 13.081H.717M13.32 37.671V32.33M13.32 26.757v-5.336M13.32 15.953V10.61" fill="none" stroke="#fff" stroke-width="0.25"></path></svg><text class="iconLabel" style="font-size: 39px;" id="firewall-text" transform="translate(121,221.5)rotate(0)" fill="#004BAF" text-anchor="middle" dominant-baseline="central">firewall</text></g><g id="lx12300" transform="translate(868,1616)"><rect rx="12.100000000000001" ry="12.100000000000001" width="242" height="242" fill="#58585B" style="stroke: none; stroke-dasharray: 0,0;"></rect><svg xmlns="http://www.w3.org/2000/svg" viewBox="0 0 246.25 328.75" height="182.70000000000002" width="217.8" x="12.100000000000001" y="12.100000000000001"><g fill="#00188f"><path d="M168.599 327.5c-42.5 0-77.198-34.697-77.198-77.197S126.1 173.1 168.6 173.1c42.5 0 77.202 34.703 77.202 77.203 0 42.597-34.702 77.197-77.202 77.197zm-18.896-40.099C155.2 306.3 163.1 315.8 168.599 315.8c5.502 0 14.199-8.701 18.901-28.399-6.299-.8-12.598-1.601-18.901-1.601-6.299 0-12.598.801-18.896 1.601zm-28.404 7.1c7.1 7.9 15.801 13.399 25.2 16.499-3.901-6.299-6.299-13.398-8.701-22.099-6.197 1.602-11.7 3.198-16.5 5.6zM200.097 289c-2.397 8.701-5.497 15.8-8.696 22.099 9.498-3.198 18.101-9.497 25.2-17.3-4.701-1.7-10.2-3.295-16.504-4.8zm-96.099-33.101c.802 10.2 3.902 18.9 9.504 28.403 6.298-3.203 13.398-5.502 21.298-7.1-1.601-7.098-1.601-14.198-2.397-21.303h-28.404zM202.5 277.9c7.9 1.602 15.801 3.901 21.299 7.1 5.502-9.497 8.701-18.101 9.502-28.399H204.2c.601 7.1-.2 13.502-1.699 21.299zM145 255.898c0 6.303.801 12.602 1.601 18.9 7.1-.8 15-1.6 22.1-1.6 7.1 0 14.199.8 22.1 1.6.8-6.298 1.601-12.597 1.601-18.9H145zm88.999-12.598c-.8-11.001-4.698-21.298-11.001-30.697-6.3 3.197-13.398 5.497-20.498 7.098 1.601 7.1 2.402 15 2.402 23.599H234zm-41.001 0c0-7.1-.795-15-2.398-21.298-7.099.8-14.199 1.596-21.299 1.596-7.099 0-14.204-.795-21.304-1.596-1.596 6.298-2.397 14.198-2.397 21.298h47.397zm-59.898 0c0-7.9.801-15.8 2.397-23.599-7.9-1.6-14.198-3.901-20.497-7.098-6.299 9.496-10.2 19.696-11.801 30.697H133.1zm17.398-32.3c6.303.801 12.602 1.603 18.902 1.603 6.299 0 12.602-.802 18.901-1.603-5.503-18.1-13.398-26-18.901-26-6.3 0-14.2 7.9-18.902 26zm-27.598-7.099c4.698 1.602 10.2 3.902 15.801 4.697 2.398-7.9 4.698-14.2 8.702-19.697-9.503 3.198-17.403 7.9-24.503 15zm68.501-15c3.199 5.498 6.299 12.598 8.696 19.697 5.503-1.596 11.002-3.198 15.802-4.697-7.901-7.1-15.801-11.802-24.498-15z" fill="white" stroke="none"></path><path d="M168.599 174.701c-41.001 0-74.8 33.897-74.8 74.8 0 40.899 33.901 74.8 74.8 74.8 40.904 0 74.8-33.901 74.8-74.8 0-40.903-33.101-74.8-74.8-74.8zm0 142.598c-8.696 0-17.3-12.598-22.1-32.299 7.1-.801 15-1.603 22.1-1.603 7.1 0 15 .802 22.1 1.603-4.8 20.502-13.497 32.299-22.1 32.299zm0-40.898c-7.9 0-15.801.8-23.599 1.601-1.601-7.9-2.402-15-2.402-24.404H195.4c0 9.502-.8 16.504-2.402 24.404-7.9-.903-15.795-1.6-24.4-1.6zm0-93.799c7.9 0 16.499 11.797 22.1 30.698-7.1.801-14.2 1.601-22.1 1.601-7.1 0-15-.8-22.1-1.601 5.504-19.703 14.2-30.698 22.1-30.698zm0 38.598c7.9 0 15.801-.8 23.604-1.601 1.596 7.901 2.397 16.499 3.197 26.001h-52.803c0-9.502 1.602-18.901 3.204-26.001 6.996 1.601 14.898 1.601 22.798 1.601zm-33.101 24.4H100.8c.8-13.399 6.3-26.001 13.398-35.4 7.1 3.197 15 6.298 24.4 7.9-1.596 7.9-2.398 16.499-3.199 26.001l.098 1.5zm0 7.9c0 9.502.8 17.3 2.402 25.2-9.501 1.603-18.1 4.697-25.2 7.901-7.1-10.2-11.001-21.298-11.001-33.9H135.6v.799h-.102zm67.002 0h33.901c-.801 12.598-4.702 23.599-11.001 33.901-7.099-3.202-15.8-6.303-25.2-7.9 1.499-8.701 2.3-15.8 2.3-26.001zm0-7.9c0-9.502-1.601-19.703-3.199-27.598 8.697-1.6 17.3-4.702 24.4-7.9 7.1 10.2 11.797 22.798 12.598 35.4H202.5v-1.6 1.698zm16.499-40.899c-6.299 3.199-13.399 5.5-21.299 7.1-3.197-11.001-7.1-20.502-12.602-26.801 13.403 3.1 25.2 10.2 33.9 19.701zM152.798 184.2C147.3 190.502 143.3 200 140.2 211c-7.9-1.601-15-3.901-21.299-7.099 8.696-8.701 20.499-15.801 33.896-19.702zM117.402 293.7c6.3-3.198 14.2-5.503 22.1-7.099 3.198 12.598 7.9 22.1 12.598 29.096-13.399-3.896-26.001-11.796-34.698-21.997zm67.695 21.997c5.503-7.1 10.2-16.498 13.404-29.096 8.701 1.596 15.8 3.902 22.099 7.1-8.7 10.2-21.299 18.1-35.502 21.996z" fill="white" stroke="none"></path><path d="M78.799 245.6c1.6-44.101 35.4-80.297 78.798-85.899v-143.3C157.597 7.7 150.498.6 141.802.6h-126C7.101.6 0 7.7 0 16.401v307.197h118.1c-11.801-7.9-21.299-18.897-28.397-31.5H23.5v-15.8h59.097c-1.597-4.697-2.398-10.2-3.198-15.796H23.5v-15.8H78.6v.898h.2zM23.7 48.7h110.2v15.801h-110.2V48.7z" fill="white" stroke="none"></path></g></svg><text class="iconLabel" style="font-size: 39px;" id="lx12300-text" transform="translate(121,221.5)rotate(0)" fill="white" text-anchor="middle" dominant-baseline="central">lx12300</text></g><g id="lx12301" transform="translate(1272,1616)"><rect rx="12.100000000000001" ry="12.100000000000001" width="242" height="242" fill="#58585B" style="stroke: none; stroke-dasharray: 0,0;"></rect><svg xmlns="http://www.w3.org/2000/svg" viewBox="0 0 246.25 328.75" height="182.70000000000002" width="217.8" x="12.100000000000001" y="12.100000000000001"><g fill="#00188f"><path d="M168.599 327.5c-42.5 0-77.198-34.697-77.198-77.197S126.1 173.1 168.6 173.1c42.5 0 77.202 34.703 77.202 77.203 0 42.597-34.702 77.197-77.202 77.197zm-18.896-40.099C155.2 306.3 163.1 315.8 168.599 315.8c5.502 0 14.199-8.701 18.901-28.399-6.299-.8-12.598-1.601-18.901-1.601-6.299 0-12.598.801-18.896 1.601zm-28.404 7.1c7.1 7.9 15.801 13.399 25.2 16.499-3.901-6.299-6.299-13.398-8.701-22.099-6.197 1.602-11.7 3.198-16.5 5.6zM200.097 289c-2.397 8.701-5.497 15.8-8.696 22.099 9.498-3.198 18.101-9.497 25.2-17.3-4.701-1.7-10.2-3.295-16.504-4.8zm-96.099-33.101c.802 10.2 3.902 18.9 9.504 28.403 6.298-3.203 13.398-5.502 21.298-7.1-1.601-7.098-1.601-14.198-2.397-21.303h-28.404zM202.5 277.9c7.9 1.602 15.801 3.901 21.299 7.1 5.502-9.497 8.701-18.101 9.502-28.399H204.2c.601 7.1-.2 13.502-1.699 21.299zM145 255.898c0 6.303.801 12.602 1.601 18.9 7.1-.8 15-1.6 22.1-1.6 7.1 0 14.199.8 22.1 1.6.8-6.298 1.601-12.597 1.601-18.9H145zm88.999-12.598c-.8-11.001-4.698-21.298-11.001-30.697-6.3 3.197-13.398 5.497-20.498 7.098 1.601 7.1 2.402 15 2.402 23.599H234zm-41.001 0c0-7.1-.795-15-2.398-21.298-7.099.8-14.199 1.596-21.299 1.596-7.099 0-14.204-.795-21.304-1.596-1.596 6.298-2.397 14.198-2.397 21.298h47.397zm-59.898 0c0-7.9.801-15.8 2.397-23.599-7.9-1.6-14.198-3.901-20.497-7.098-6.299 9.496-10.2 19.696-11.801 30.697H133.1zm17.398-32.3c6.303.801 12.602 1.603 18.902 1.603 6.299 0 12.602-.802 18.901-1.603-5.503-18.1-13.398-26-18.901-26-6.3 0-14.2 7.9-18.902 26zm-27.598-7.099c4.698 1.602 10.2 3.902 15.801 4.697 2.398-7.9 4.698-14.2 8.702-19.697-9.503 3.198-17.403 7.9-24.503 15zm68.501-15c3.199 5.498 6.299 12.598 8.696 19.697 5.503-1.596 11.002-3.198 15.802-4.697-7.901-7.1-15.801-11.802-24.498-15z" fill="white" stroke="none"></path><path d="M168.599 174.701c-41.001 0-74.8 33.897-74.8 74.8 0 40.899 33.901 74.8 74.8 74.8 40.904 0 74.8-33.901 74.8-74.8 0-40.903-33.101-74.8-74.8-74.8zm0 142.598c-8.696 0-17.3-12.598-22.1-32.299 7.1-.801 15-1.603 22.1-1.603 7.1 0 15 .802 22.1 1.603-4.8 20.502-13.497 32.299-22.1 32.299zm0-40.898c-7.9 0-15.801.8-23.599 1.601-1.601-7.9-2.402-15-2.402-24.404H195.4c0 9.502-.8 16.504-2.402 24.404-7.9-.903-15.795-1.6-24.4-1.6zm0-93.799c7.9 0 16.499 11.797 22.1 30.698-7.1.801-14.2 1.601-22.1 1.601-7.1 0-15-.8-22.1-1.601 5.504-19.703 14.2-30.698 22.1-30.698zm0 38.598c7.9 0 15.801-.8 23.604-1.601 1.596 7.901 2.397 16.499 3.197 26.001h-52.803c0-9.502 1.602-18.901 3.204-26.001 6.996 1.601 14.898 1.601 22.798 1.601zm-33.101 24.4H100.8c.8-13.399 6.3-26.001 13.398-35.4 7.1 3.197 15 6.298 24.4 7.9-1.596 7.9-2.398 16.499-3.199 26.001l.098 1.5zm0 7.9c0 9.502.8 17.3 2.402 25.2-9.501 1.603-18.1 4.697-25.2 7.901-7.1-10.2-11.001-21.298-11.001-33.9H135.6v.799h-.102zm67.002 0h33.901c-.801 12.598-4.702 23.599-11.001 33.901-7.099-3.202-15.8-6.303-25.2-7.9 1.499-8.701 2.3-15.8 2.3-26.001zm0-7.9c0-9.502-1.601-19.703-3.199-27.598 8.697-1.6 17.3-4.702 24.4-7.9 7.1 10.2 11.797 22.798 12.598 35.4H202.5v-1.6 1.698zm16.499-40.899c-6.299 3.199-13.399 5.5-21.299 7.1-3.197-11.001-7.1-20.502-12.602-26.801 13.403 3.1 25.2 10.2 33.9 19.701zM152.798 184.2C147.3 190.502 143.3 200 140.2 211c-7.9-1.601-15-3.901-21.299-7.099 8.696-8.701 20.499-15.801 33.896-19.702zM117.402 293.7c6.3-3.198 14.2-5.503 22.1-7.099 3.198 12.598 7.9 22.1 12.598 29.096-13.399-3.896-26.001-11.796-34.698-21.997zm67.695 21.997c5.503-7.1 10.2-16.498 13.404-29.096 8.701 1.596 15.8 3.902 22.099 7.1-8.7 10.2-21.299 18.1-35.502 21.996z" fill="white" stroke="none"></path><path d="M78.799 245.6c1.6-44.101 35.4-80.297 78.798-85.899v-143.3C157.597 7.7 150.498.6 141.802.6h-126C7.101.6 0 7.7 0 16.401v307.197h118.1c-11.801-7.9-21.299-18.897-28.397-31.5H23.5v-15.8h59.097c-1.597-4.697-2.398-10.2-3.198-15.796H23.5v-15.8H78.6v.898h.2zM23.7 48.7h110.2v15.801h-110.2V48.7z" fill="white" stroke="none"></path></g></svg><text class="iconLabel" style="font-size: 39px;" id="lx12301-text" transform="translate(121,221.5)rotate(0)" fill="white" text-anchor="middle" dominant-baseline="central">lx12301</text></g><g id="lx12302" transform="translate(1676,1616)"><rect rx="12.100000000000001" ry="12.100000000000001" width="242" height="242" fill="#58585B" style="stroke: none; stroke-dasharray: 0,0;"></rect><svg xmlns="http://www.w3.org/2000/svg" viewBox="0 0 246.25 328.75" height="182.70000000000002" width="217.8" x="12.100000000000001" y="12.100000000000001"><g fill="#00188f"><path d="M168.599 327.5c-42.5 0-77.198-34.697-77.198-77.197S126.1 173.1 168.6 173.1c42.5 0 77.202 34.703 77.202 77.203 0 42.597-34.702 77.197-77.202 77.197zm-18.896-40.099C155.2 306.3 163.1 315.8 168.599 315.8c5.502 0 14.199-8.701 18.901-28.399-6.299-.8-12.598-1.601-18.901-1.601-6.299 0-12.598.801-18.896 1.601zm-28.404 7.1c7.1 7.9 15.801 13.399 25.2 16.499-3.901-6.299-6.299-13.398-8.701-22.099-6.197 1.602-11.7 3.198-16.5 5.6zM200.097 289c-2.397 8.701-5.497 15.8-8.696 22.099 9.498-3.198 18.101-9.497 25.2-17.3-4.701-1.7-10.2-3.295-16.504-4.8zm-96.099-33.101c.802 10.2 3.902 18.9 9.504 28.403 6.298-3.203 13.398-5.502 21.298-7.1-1.601-7.098-1.601-14.198-2.397-21.303h-28.404zM202.5 277.9c7.9 1.602 15.801 3.901 21.299 7.1 5.502-9.497 8.701-18.101 9.502-28.399H204.2c.601 7.1-.2 13.502-1.699 21.299zM145 255.898c0 6.303.801 12.602 1.601 18.9 7.1-.8 15-1.6 22.1-1.6 7.1 0 14.199.8 22.1 1.6.8-6.298 1.601-12.597 1.601-18.9H145zm88.999-12.598c-.8-11.001-4.698-21.298-11.001-30.697-6.3 3.197-13.398 5.497-20.498 7.098 1.601 7.1 2.402 15 2.402 23.599H234zm-41.001 0c0-7.1-.795-15-2.398-21.298-7.099.8-14.199 1.596-21.299 1.596-7.099 0-14.204-.795-21.304-1.596-1.596 6.298-2.397 14.198-2.397 21.298h47.397zm-59.898 0c0-7.9.801-15.8 2.397-23.599-7.9-1.6-14.198-3.901-20.497-7.098-6.299 9.496-10.2 19.696-11.801 30.697H133.1zm17.398-32.3c6.303.801 12.602 1.603 18.902 1.603 6.299 0 12.602-.802 18.901-1.603-5.503-18.1-13.398-26-18.901-26-6.3 0-14.2 7.9-18.902 26zm-27.598-7.099c4.698 1.602 10.2 3.902 15.801 4.697 2.398-7.9 4.698-14.2 8.702-19.697-9.503 3.198-17.403 7.9-24.503 15zm68.501-15c3.199 5.498 6.299 12.598 8.696 19.697 5.503-1.596 11.002-3.198 15.802-4.697-7.901-7.1-15.801-11.802-24.498-15z" fill="white" stroke="none"></path><path d="M168.599 174.701c-41.001 0-74.8 33.897-74.8 74.8 0 40.899 33.901 74.8 74.8 74.8 40.904 0 74.8-33.901 74.8-74.8 0-40.903-33.101-74.8-74.8-74.8zm0 142.598c-8.696 0-17.3-12.598-22.1-32.299 7.1-.801 15-1.603 22.1-1.603 7.1 0 15 .802 22.1 1.603-4.8 20.502-13.497 32.299-22.1 32.299zm0-40.898c-7.9 0-15.801.8-23.599 1.601-1.601-7.9-2.402-15-2.402-24.404H195.4c0 9.502-.8 16.504-2.402 24.404-7.9-.903-15.795-1.6-24.4-1.6zm0-93.799c7.9 0 16.499 11.797 22.1 30.698-7.1.801-14.2 1.601-22.1 1.601-7.1 0-15-.8-22.1-1.601 5.504-19.703 14.2-30.698 22.1-30.698zm0 38.598c7.9 0 15.801-.8 23.604-1.601 1.596 7.901 2.397 16.499 3.197 26.001h-52.803c0-9.502 1.602-18.901 3.204-26.001 6.996 1.601 14.898 1.601 22.798 1.601zm-33.101 24.4H100.8c.8-13.399 6.3-26.001 13.398-35.4 7.1 3.197 15 6.298 24.4 7.9-1.596 7.9-2.398 16.499-3.199 26.001l.098 1.5zm0 7.9c0 9.502.8 17.3 2.402 25.2-9.501 1.603-18.1 4.697-25.2 7.901-7.1-10.2-11.001-21.298-11.001-33.9H135.6v.799h-.102zm67.002 0h33.901c-.801 12.598-4.702 23.599-11.001 33.901-7.099-3.202-15.8-6.303-25.2-7.9 1.499-8.701 2.3-15.8 2.3-26.001zm0-7.9c0-9.502-1.601-19.703-3.199-27.598 8.697-1.6 17.3-4.702 24.4-7.9 7.1 10.2 11.797 22.798 12.598 35.4H202.5v-1.6 1.698zm16.499-40.899c-6.299 3.199-13.399 5.5-21.299 7.1-3.197-11.001-7.1-20.502-12.602-26.801 13.403 3.1 25.2 10.2 33.9 19.701zM152.798 184.2C147.3 190.502 143.3 200 140.2 211c-7.9-1.601-15-3.901-21.299-7.099 8.696-8.701 20.499-15.801 33.896-19.702zM117.402 293.7c6.3-3.198 14.2-5.503 22.1-7.099 3.198 12.598 7.9 22.1 12.598 29.096-13.399-3.896-26.001-11.796-34.698-21.997zm67.695 21.997c5.503-7.1 10.2-16.498 13.404-29.096 8.701 1.596 15.8 3.902 22.099 7.1-8.7 10.2-21.299 18.1-35.502 21.996z" fill="white" stroke="none"></path><path d="M78.799 245.6c1.6-44.101 35.4-80.297 78.798-85.899v-143.3C157.597 7.7 150.498.6 141.802.6h-126C7.101.6 0 7.7 0 16.401v307.197h118.1c-11.801-7.9-21.299-18.897-28.397-31.5H23.5v-15.8h59.097c-1.597-4.697-2.398-10.2-3.198-15.796H23.5v-15.8H78.6v.898h.2zM23.7 48.7h110.2v15.801h-110.2V48.7z" fill="white" stroke="none"></path></g></svg><text class="iconLabel" style="font-size: 39px;" id="lx12302-text" transform="translate(121,221.5)rotate(0)" fill="white" text-anchor="middle" dominant-baseline="central">lx12302</text></g><g transform="translate(60,808)"><rect rx="12.100000000000001" ry="12.100000000000001" width="242" height="646" id="firewallComment" fill="#000066" style="stroke: blue;"></rect><foreignobject width="242px" height="646px"><div style="width: 242px; height: 646px; font-size: 30.25px; display: flex; padding: 12.100000000000001px; color: white; text-align: center;" class="notes"><h1 id="notesnote">NOTE:</h1>
<p>This is a redundant HA pair. More text could go here to completely fill up this box.</p></div></foreignobject></g><text class="connectionLabel" style="fill: white; font-size: 30.25px;" dy="-1" dx="123.99999999999999"><textPath style="text-anchor: start;" href="#path0">eth0</textPath></text><text class="connectionLabel" style="fill: white; font-size: 30.25px;" dy="30.25" dx="-123.99999999999999"><textPath style="text-anchor: end;" startOffset="100%" href="#path0">eth1</textPath></text><text class="connectionLabel" style="fill: white; font-size: 30.25px;" dy="-1" dx="124"><textPath style="text-anchor: start;" href="#path1">eth5</textPath></text><text class="connectionLabel" style="fill: white; font-size: 30.25px;" dy="30.25" dx="-124"><textPath style="text-anchor: end;" startOffset="100%" href="#path1">eth6</textPath></text><text class="connectionLabel" style="fill: white; font-size: 30.25px;" dy="-1" dx="123.99999999999999"><textPath style="text-anchor: start;" href="#path2"></textPath></text><text class="connectionLabel" style="fill: white; font-size: 30.25px;" dy="30.25" dx="-123.99999999999999"><textPath style="text-anchor: end;" startOffset="100%" href="#path2"></textPath></text><text class="connectionLabel" style="fill: white; font-size: 30.25px;" dy="-1" dx="123.99999999999999"><textPath style="text-anchor: start;" href="#path3">XXXXXX</textPath></text><text class="connectionLabel" style="fill: white; font-size: 30.25px;" dy="30.25" dx="-123.99999999999999"><textPath style="text-anchor: end;" startOffset="100%" href="#path3">YYYYY</textPath></text><text class="connectionLabel" style="fill: white; font-size: 30.25px;" dy="-1" dx="123.99999999999999"><textPath style="text-anchor: start;" href="#path4">443</textPath></text><text class="connectionLabel" style="fill: white; font-size: 30.25px;" dy="30.25" dx="-123.99999999999999"><textPath style="text-anchor: end;" startOffset="100%" href="#path4"></textPath></text><text class="connectionLabel" style="fill: white; font-size: 30.25px;" dy="-1" dx="153.43211263873727"><textPath style="text-anchor: start;" href="#path5"></textPath></text><text class="connectionLabel" style="fill: white; font-size: 30.25px;" dy="30.25" dx="-153.43211263873727"><textPath style="text-anchor: end;" startOffset="100%" href="#path5"></textPath></text><text class="connectionLabel" style="fill: white; font-size: 30.25px;" dy="-1" dx="174.11984104714446"><textPath style="text-anchor: start;" href="#path6">80</textPath></text><text class="connectionLabel" style="fill: white; font-size: 30.25px;" dy="30.25" dx="-174.11984104714446"><textPath style="text-anchor: end;" startOffset="100%" href="#path6">SNAT</textPath></text><text class="connectionLabel" style="fill: white; font-size: 30.25px;" dy="-1" dx="123.99999999999999"><textPath style="text-anchor: start;" href="#path7">80</textPath></text><text class="connectionLabel" style="fill: white; font-size: 30.25px;" dy="30.25" dx="-123.99999999999999"><textPath style="text-anchor: end;" startOffset="100%" href="#path7">SNAT</textPath></text><text class="connectionLabel" style="fill: orange; font-size: 30.25px;" dy="-1" dx="142.87394517493422"><textPath style="text-anchor: start;" href="#path8"></textPath></text><text class="connectionLabel" style="fill: orange; font-size: 30.25px;" dy="30.25" dx="-142.87394517493422"><textPath style="text-anchor: end;" startOffset="100%" href="#path8"></textPath></text><text class="groupLabel" transform="translate(827.905,377.27000000000004)rotate(0)" text-anchor="start" dominant-baseline="central" style="font-size: 51.46px;" fill="white">Chandler</text><text class="groupLabel" transform="translate(33.269999999999996,120.99999999999997)rotate(-90)" text-anchor="middle" dominant-baseline="central" style="font-size: 51.46px;" fill="white">Other group</text><text class="groupLabel" transform="translate(1393,1884.73)rotate(0)" text-anchor="middle" dominant-baseline="central" style="font-size: 51.46px;" fill="white">Servers</text></g></svg>